# xmcd CD database file
# Copyright (C) 1995-1998 Ti Kan
#
# Track frame offsets:
#	150
#	14965
#	28037
#	39060
#	52547
#	61155
#	71105
#	83587
#	94115
#	107222
#	120152
#	131415
#	146140
#	155932
#	167435
#	180745
#	193650
#	202797
#	217222
#	231327
#
# Disc length: 3263 seconds
#
# Revision: 1
# Processed by: cddbd v1.4b41PL1 Copyright (c) Steve Scherf et al.
# Submitted via: CDex 1.30
#
DISCID=140cbd14
DTITLE=Anne Murray - The Signature Series, Volume 2 (Straight Clean and Simple
DTITLE=/Talk It Over In The Morning)
DYEAR=1971
DGENRE=Country
TTITLE0=It Takes Time
TTITLE1=People's Park
TTITLE2=One Day I Walk
TTITLE3=Child Of Mine
TTITLE4=Sycamore Slick
TTITLE5=Wishing Smiles Made It All True
TTITLE6=Sing High, Sing Low
TTITLE7=Days Of The Looking Glass
TTITLE8=A Stranger In My Place
TTITLE9=I'll Never Fall In Love Again
TTITLE10=Talk It Over In The Morning
TTITLE11=Most Of All
TTITLE12=Bring Back The Love
TTITLE13=Let Me Be The One
TTITLE14=Night Owl
TTITLE15=Destiny
TTITLE16=Please Smile
TTITLE17=I Know
TTITLE18=You've Got A Friend
TTITLE19=Cotton Jenny
EXTD=\nYEAR: 1971  ID3G:   2
EXTT0=
EXTT1=
EXTT2=
EXTT3=
EXTT4=
EXTT5=
EXTT6=
EXTT7=
EXTT8=
EXTT9=
EXTT10=
EXTT11=
EXTT12=
EXTT13=
EXTT14=
EXTT15=
EXTT16=
EXTT17=
EXTT18=
EXTT19=
PLAYORDER=
